<svg version="1.2" xmlns="http://www.w3.org/2000/svg" viewBox="0 0 500 500" width="500" height="500">
	<title>Speech to text-rafiki (1)-svg</title>
	<style>
		tspan { white-space:pre } 
		.s0 { fill: #7e57c2 } 
		.s1 { opacity: .9;fill: #ffffff } 
		.s2 { fill: #f5f5f5 } 
		.s3 { fill: #263238 } 
		.s4 { opacity: .3;fill: #ffffff } 
		.t5 { font-size: 24px;fill: #000000;font-weight: 400;font-family: "Montserrat-Regular", "Montserrat" } 
		.s6 { opacity: .6;fill: #ffffff } 
		.s7 { opacity: .5;fill: #000000 } 
		.s8 { opacity: .4;fill: #ffffff } 
		.s9 { opacity: .5;fill: #ffffff } 
		.s10 { opacity: .3;fill: #000000 } 
		.s11 { opacity: .2;fill: #ffffff } 
		.s12 { opacity: .2;fill: #000000 } 
	</style>
	<g id="freepik--background-simple--inject-173">
		<path id="Layer" class="s0" d="m74.9 153.8c5.3-65.5 101.1-92.4 151.5-66.7 50.5 25.8 71.6 46.5 98.4 19.8 26.8-26.8 69.5-38.3 89.3 7.3 19.7 45.6 2.4 114.7-51.6 153.4-54 38.8-32.4 96.3-116.3 114.5-45.8 9.9-64.3-36.7-72.7-77.8-8.4-41.1-104.8-74.6-98.6-150.5z"/>
		<path id="Layer" class="s1" d="m74.9 153.8c5.3-65.5 101.1-92.4 151.5-66.7 50.5 25.8 71.6 46.5 98.4 19.8 26.8-26.8 69.5-38.3 89.3 7.3 19.7 45.6 2.4 114.7-51.6 153.4-54 38.8-32.4 96.3-116.3 114.5-45.8 9.9-64.3-36.7-72.7-77.8-8.4-41.1-104.8-74.6-98.6-150.5z"/>
	</g>
	<g id="freepik--Shadow--inject-173">
		<path id="freepik--path--inject-173" class="s2" d="m250 427.6c-107.2 0-193.9-5.1-193.9-11.4 0-6.2 86.7-11.3 193.9-11.3 107.2 0 193.9 5.1 193.9 11.3 0 6.3-86.7 11.4-193.9 11.4z"/>
	</g>
	<g id="freepik--Devices--inject-173">
		<path id="Layer" class="s3" d="m178 417.3h-149.3q-0.2 0-0.3-0.1-0.2-0.2-0.2-0.4 0-0.2 0.2-0.3 0.1-0.2 0.3-0.2h149.3c24.5 0 28.3-6.2 28.4-6.3q0-0.1 0.1-0.1 0.1-0.1 0.2-0.1 0.1-0.1 0.2 0 0.1 0 0.2 0 0.1 0.1 0.1 0.1 0.1 0.1 0.1 0.2 0 0.1 0 0.2 0 0.1 0 0.2c-0.2 0.3-4 6.8-29.3 6.8z"/>
		<path id="Layer" class="s3" d="m230.5 410.8q-0.1-0.1-0.2-0.1-0.1 0-0.2-0.1 0-0.1-0.1-0.2 0 0 0-0.1 0-0.1 0-0.2 0.1-0.1 0.1-0.2 0.1-0.1 0.2-0.1 0.1 0 0.2-0.1c20.3-0.4 41.3-11.4 57.4-30 15.8-18.1 24.8-40.8 24.8-62.3v-131.1q0-0.1 0-0.2 0.1 0 0.2-0.1 0-0.1 0.1-0.1 0.1-0.1 0.2-0.1 0.1 0 0.2 0.1 0.1 0 0.2 0.1 0 0.1 0.1 0.1 0 0.1 0 0.2v131.1c0 21.7-9.1 44.6-25.1 63-16.3 18.8-37.5 29.9-58.1 30.4z"/>
		<path id="Layer" class="s3" d="m222 406.9q-0.2 0-0.4-0.2-0.1-0.1-0.1-0.3 0-0.2 0.1-0.4 0.1-0.1 0.3-0.1c25.3-3.2 45.8-31 45.8-62.1v-84.9q0-0.2 0.2-0.4 0.1-0.1 0.3-0.1 0.2 0 0.4 0.1 0.1 0.2 0.1 0.4v84.9q0 5.5-0.8 11-0.9 5.4-2.5 10.7-1.7 5.2-4.1 10.2-2.4 4.9-5.6 9.5c-8.7 12.4-20.7 20-33.6 21.7z"/>
		<path id="Layer" class="s3" d="m208.1 410.8q-0.1-0.1-0.2-0.1-0.1 0-0.2-0.1 0 0-0.1-0.1 0-0.1 0-0.2-0.1-0.1 0-0.2 0-0.1 0-0.1 0.1-0.1 0.2-0.2 0.1 0 0.2 0c0-0.1 1.7-0.4 3.4-3 3-4.6 6.9-17.4-0.2-52.1-10.8-52.6-0.1-80.4 0-80.7q0-0.2 0.2-0.3 0.2-0.1 0.4 0 0.2 0.1 0.3 0.3 0.1 0.2 0 0.3c-0.1 0.3-10.7 27.9 0 80.2 6.9 33.5 3.8 47.3 0 52.9-1.9 2.9-3.9 3.3-4 3.3z"/>
		<path id="Layer" class="s3" d="m272.5 279.6q-4.4 0-8.7-0.6-4.3-0.5-8.5-1.5-4.2-1-8.2-2.5-4.1-1.5-8-3.4-0.2-0.1-0.2-0.3-0.1-0.2 0-0.4 0.1-0.2 0.3-0.2 0.2-0.1 0.4 0c23.4 11.5 46.5 9 58.2 1.8 4.9-3 7.5-6.8 7.5-10.5v-75.7q0-0.1 0.1-0.2 0 0 0.1-0.1 0.1-0.1 0.1-0.1 0.1-0.1 0.2-0.1 0.1 0 0.2 0.1 0.1 0 0.2 0.1 0.1 0.1 0.1 0.1 0 0.1 0 0.2v75.7c0 4-2.8 8.1-8 11.3-6.1 3.8-15.2 6.3-25.8 6.3z"/>
		<path id="Layer" class="s3" d="m232 278.9q-1.2 0-2.5-0.1-1.2 0-2.4-0.1-1.3-0.1-2.5-0.3-1.2-0.2-2.4-0.4c-13.4-2.5-22.7-9.3-24.3-17.8-2.3-12 1-18.3 3.2-20.9q0.6-0.8 1.3-1.5 0.8-0.6 1.7-1.1 0.8-0.5 1.8-0.7 1-0.3 2-0.3 0.1 0 0.1 0 0.1 0 0.2 0.1 0.1 0.1 0.1 0.2 0.1 0.1 0.1 0.2 0 0-0.1 0.1 0 0.1-0.1 0.2-0.1 0.1-0.1 0.1-0.1 0-0.2 0.1-0.9 0-1.8 0.2-0.8 0.3-1.6 0.7-0.8 0.4-1.4 1-0.7 0.6-1.2 1.3c-3.6 4.3-4.7 11.6-3 20 1.5 8 10.7 14.7 23.5 17.1 15 2.8 34.3-0.8 43.4-15.3q0.1-0.1 0.1-0.1 0.1-0.1 0.2-0.1 0.1 0 0.2 0 0.1 0 0.2 0 0.1 0.1 0.1 0.2 0.1 0.1 0.1 0.2 0 0 0 0.1 0 0.1 0 0.2c-7.5 11.9-21.5 16.7-34.7 16.7z"/>
		<path id="Layer" class="s3" d="m345.8 185h4.1v93.3h-4.1z"/>
		<path id="Layer" class="s4" d="m345.8 185h4.1v93.3h-4.1z"/>
		<path id="Layer" class="s3" d="m286.4 159.1c0-0.9 0.8-1.6 1.7-1.6h119.5c0.9 0 1.6 0.7 1.6 1.6v30.2c0 0.8-0.7 1.6-1.6 1.6h-119.5c-0.9 0-1.7-0.8-1.7-1.6z"/>
		<path id="Layer" class="s0" d="m289.4 160.4h116.8v27.6h-116.8z"/>
		<text id="Text layer 90" style="transform: matrix(1,0,0,1,300,161)" >
			<tspan x="0" y="17.8" class="t5">Q</tspan><tspan  y="17.8" class="t5">u</tspan><tspan  y="17.8" class="t5">e</tspan><tspan  y="17.8" class="t5">u</tspan><tspan  y="17.8" class="t5">e</tspan><tspan  y="17.8" class="t5">d</tspan><tspan  y="17.8" class="t5">!
</tspan>
		</text>
		<path id="Layer" class="s3" d="m331.2 274.2h33.2q0.5 0 1 0.2 0.5 0.2 0.8 0.6 0.4 0.3 0.6 0.8 0.2 0.5 0.2 1v1.5h-38.4v-1.5q0.1-0.5 0.2-1 0.2-0.5 0.6-0.8 0.4-0.4 0.8-0.6 0.5-0.2 1-0.2z"/>
		<path id="Layer" class="s3" d="m358.8 275.4h-21.9l2-3.6h17.9l2 3.6z"/>
		<path id="Layer" class="s3" d="m274.3 241.6h11.1l-3 31.8 17.5 2.7v2.2h-36.9v-2.2l7.5-2.7 3.7-31.8z"/>
		<path id="Layer" class="s3" d="m317.3 261.8q0.1 0.8-0.1 1.5-0.2 0.7-0.7 1.2-0.5 0.6-1.2 0.9-0.7 0.3-1.4 0.3h-67.2q-0.8 0-1.6-0.3-0.7-0.3-1.3-0.9-0.5-0.5-0.9-1.2-0.4-0.7-0.4-1.5l-4-43q-0.1-0.1-0.1-0.3 0-0.2 0.1-0.3 0-0.2 0-0.3 0-0.2 0.1-0.4 0.1-0.5 0.4-1 0.3-0.5 0.8-0.8 0.5-0.4 1-0.6 0.6-0.2 1.1-0.1h67.2q0.8 0 1.6 0.3 0.7 0.3 1.3 0.8 0.5 0.5 0.9 1.2 0.4 0.7 0.4 1.5z"/>
		<path id="Layer" class="s0" d="m246.7 263.5q-0.4 0-0.8-0.1-0.3-0.2-0.6-0.5-0.3-0.2-0.5-0.6-0.1-0.3-0.2-0.7l-4-43q0 0 0-0.1 0-0.1 0-0.1 0-0.1 0-0.2 0 0 0-0.1 0.1-0.2 0.2-0.4 0.1-0.2 0.3-0.3 0.2-0.2 0.4-0.3 0.2 0 0.4 0h67.2q0.4 0 0.7 0.2 0.4 0.1 0.7 0.4 0.3 0.2 0.4 0.6 0.2 0.3 0.3 0.7l4 43q0 0.1 0 0.3 0 0.1-0.1 0.3 0 0.1-0.1 0.2-0.1 0.2-0.2 0.3-0.1 0.1-0.2 0.2-0.1 0-0.2 0.1-0.2 0-0.3 0.1-0.1 0-0.3 0z"/>
		<path id="Layer" class="s6" d="m246.7 263.5q-0.4 0-0.8-0.1-0.3-0.2-0.6-0.5-0.3-0.2-0.5-0.6-0.1-0.3-0.2-0.7l-4-43q0 0 0-0.1 0-0.1 0-0.1 0-0.1 0-0.2 0 0 0-0.1 0.1-0.2 0.2-0.4 0.1-0.2 0.3-0.3 0.2-0.2 0.4-0.3 0.2 0 0.4 0h67.2q0.4 0 0.7 0.2 0.4 0.1 0.7 0.4 0.3 0.2 0.4 0.6 0.2 0.3 0.3 0.7l4 43q0 0.1 0 0.3 0 0.1-0.1 0.3 0 0.1-0.1 0.2-0.1 0.2-0.2 0.3-0.1 0.1-0.2 0.2-0.1 0-0.2 0.1-0.2 0-0.3 0.1-0.1 0-0.3 0z"/>
		<path id="Layer" class="s0" d="m314.3 262.9h-68.6l-4.2-44.5h68.6l4.2 44.5z"/>
		<path id="Layer" class="s7" d="m310.4 222.1h-68.5l-0.4-3.7h68.6l0.4 3.7z"/>
		<path id="Layer" class="s0" d="m304.3 220.2q0.1 0.2 0 0.3 0 0.1-0.1 0.2-0.1 0.1-0.2 0.2-0.2 0-0.3 0-0.1 0-0.3 0-0.1-0.1-0.2-0.2-0.1-0.1-0.2-0.2 0-0.1-0.1-0.3 0-0.1 0.1-0.2 0-0.1 0.1-0.2 0.1-0.1 0.2-0.2 0.1-0.1 0.3 0 0.1 0 0.3 0 0.1 0.1 0.2 0.2 0.1 0 0.2 0.2 0 0.1 0 0.2z"/>
		<path id="Layer" class="s0" d="m309.1 220.2q0 0.2-0.1 0.3 0 0.1-0.1 0.2-0.1 0.1-0.2 0.2-0.1 0-0.3 0-0.1 0-0.2 0-0.2-0.1-0.3-0.2-0.1-0.1-0.1-0.2-0.1-0.1-0.1-0.3 0-0.1 0-0.2 0.1-0.2 0.1-0.3 0.1-0.1 0.3-0.1 0.1-0.1 0.2 0 0.2 0 0.3 0 0.1 0.1 0.2 0.2 0.1 0 0.2 0.2 0.1 0.1 0.1 0.2z"/>
		<path id="Layer" class="s0" d="m306.7 220.2q0 0.2 0 0.3-0.1 0.1-0.1 0.2-0.1 0.1-0.3 0.2-0.1 0-0.2 0-0.2 0-0.3 0-0.1-0.1-0.2-0.2-0.1-0.1-0.2-0.2-0.1-0.1-0.1-0.3 0-0.1 0-0.2 0.1-0.1 0.2-0.2 0.1-0.1 0.2-0.2 0.1-0.1 0.3 0 0.1 0 0.2 0 0.2 0.1 0.3 0.2 0.1 0 0.1 0.2 0.1 0.1 0.1 0.2z"/>
		<path id="Layer" class="s8" d="m250 257.5h-3.6l-3.2-34.3h3.6l3.2 34.3z"/>
		<path id="Layer" class="s8" d="m314.1 261.2l0.2 1.7h-68.6l-0.2-1.7h68.6z"/>
		<path id="Layer" class="s3" d="m310.3 240.6h-60.6l-1.4-16.2h60.6l1.4 16.2z"/>
		<path id="Layer" class="s3" d="m312 258.9h-60.6l-1.5-16.2h60.6l1.5 16.2z"/>
		<path id="Layer" class="s0" d="m274 232.8q-0.1 0.2-0.1 0.4-0.1 0.2-0.2 0.4-0.1 0.2-0.2 0.3-0.1-0.1-0.2-0.3-0.1-0.2-0.1-0.3-0.1-0.2-0.1-0.4-0.1-0.2-0.1-0.4 0 0.2 0 0.4 0 0.2-0.1 0.4 0 0.2 0 0.4-0.1 0.2-0.1 0.4-0.1-0.2-0.2-0.4-0.1-0.1-0.2-0.3 0-0.2-0.1-0.4 0-0.3 0-0.5 0 0.5 0 0.9 0 0.5 0 0.9 0 0.4 0 0.9-0.1 0.4-0.1 0.8-0.2-0.3-0.3-0.7-0.1-0.4-0.1-0.8-0.1-0.4-0.2-0.8 0-0.4-0.1-0.8 0 0.3 0 0.6 0 0.2 0 0.5 0 0.3-0.1 0.5 0 0.3-0.1 0.6-0.1-0.3-0.2-0.5-0.1-0.2-0.1-0.5-0.1-0.2-0.2-0.5 0-0.3 0-0.5 0 0.5 0 0.9 0 0.5 0 1 0 0.5 0 1 0 0.5 0 0.9-0.2-0.4-0.3-0.9-0.1-0.4-0.2-0.9-0.1-0.5-0.2-1 0-0.4-0.1-0.9 0.1 0.4 0.1 0.7 0 0.4-0.1 0.7 0 0.4 0 0.7 0 0.4-0.1 0.7-0.1-0.3-0.2-0.6-0.1-0.4-0.2-0.7-0.1-0.4-0.1-0.7-0.1-0.3-0.1-0.7 0 0.7 0.1 1.4 0 0.7 0 1.4 0 0.6 0 1.3 0 0.7 0 1.4-0.2-0.6-0.3-1.3-0.1-0.6-0.2-1.3-0.1-0.7-0.2-1.3-0.1-0.7-0.2-1.3 0.1 0.5 0.1 1 0 0.6 0 1.1 0 0.6 0 1.1 0 0.5-0.1 1.1-0.1-0.6-0.2-1.2-0.2-0.6-0.3-1.2-0.1-0.6-0.2-1.2 0-0.6-0.1-1.2 0 0.3 0 0.5 0 0.3 0 0.5 0 0.3-0.1 0.5 0 0.3-0.1 0.5-0.1-0.2-0.2-0.5-0.1-0.2-0.1-0.5-0.1-0.2-0.2-0.5 0-0.2 0-0.5 0 0.5 0 1 0 0.5 0 0.9 0 0.5 0 1 0 0.5 0 1-0.2-0.5-0.3-0.9-0.1-0.5-0.2-1-0.1-0.4-0.2-0.9 0-0.5-0.1-1 0.1 0.4 0.1 0.7 0 0.4-0.1 0.7 0 0.4 0 0.8 0 0.3-0.1 0.7-0.1-0.4-0.2-0.7-0.1-0.3-0.2-0.7 0-0.3-0.1-0.6-0.1-0.4-0.1-0.7 0 0.4 0 0.9 0.1 0.4 0 0.8 0 0.4 0 0.8 0 0.5-0.1 0.9-0.1-0.4-0.2-0.8-0.1-0.4-0.2-0.8-0.1-0.4-0.2-0.8 0-0.4-0.1-0.8 0.1 0.4 0.1 0.8 0 0.3 0 0.7-0.1 0.4-0.1 0.8 0 0.3-0.1 0.7-0.1-0.4-0.2-0.8-0.1-0.4-0.2-0.9-0.1-0.4-0.2-0.8 0-0.5-0.1-0.9 0 0.3 0 0.5 0 0.3 0 0.5 0 0.3-0.1 0.5 0 0.3-0.1 0.5-0.1-0.2-0.2-0.5-0.1-0.2-0.1-0.5-0.1-0.2-0.2-0.5 0-0.2 0-0.5 0 0.5 0 1 0 0.5 0 0.9 0 0.5 0 1 0 0.5 0 1-0.2-0.5-0.3-1-0.1-0.4-0.2-0.9-0.1-0.5-0.1-0.9-0.1-0.5-0.2-1 0.1 0.4 0.1 0.7 0 0.4-0.1 0.7 0 0.4 0 0.7 0 0.4-0.1 0.7-0.1-0.3-0.2-0.6-0.1-0.3-0.2-0.6 0-0.4-0.1-0.7-0.1-0.3-0.1-0.6 0.1 0.6 0.1 1.3 0 0.7 0 1.3 0.1 0.7 0 1.4 0 0.7 0 1.3-0.2-0.6-0.3-1.1-0.1-0.6-0.2-1.2-0.1-0.6-0.2-1.2-0.1-0.6-0.1-1.2 0 0.5 0 0.9 0.1 0.5 0.1 1 0 0.5-0.1 0.9 0 0.5 0 1-0.2-0.6-0.3-1.1-0.1-0.6-0.2-1.2-0.1-0.6-0.2-1.2-0.1-0.6-0.1-1.2 0 0.3 0 0.5 0 0.2-0.1 0.5 0 0.2 0 0.4-0.1 0.3-0.1 0.5-0.1-0.2-0.2-0.4-0.1-0.3-0.2-0.5 0-0.2-0.1-0.5 0-0.2-0.1-0.5 0.1 0.5 0.1 1 0 0.4 0 0.9 0 0.5 0 0.9-0.1 0.5-0.1 1-0.2-0.5-0.3-1-0.1-0.4-0.2-0.9-0.1-0.5-0.2-1-0.1-0.5-0.1-1 0 0.2 0 0.5 0 0.2 0 0.4-0.1 0.2-0.1 0.4 0 0.2-0.1 0.4-0.1-0.2-0.2-0.4-0.1-0.2-0.1-0.5-0.1-0.2-0.2-0.4 0-0.3 0-0.5 0 0.2 0 0.5 0 0.3-0.1 0.6 0 0.2 0 0.5-0.1 0.3-0.1 0.5-0.2-0.2-0.2-0.5-0.1-0.2-0.2-0.5-0.1-0.3-0.1-0.6-0.1-0.2-0.1-0.5 0 0.2 0 0.5 0 0.2 0 0.4-0.1 0.3-0.1 0.5-0.1 0.3-0.1 0.5-0.1-0.3-0.2-0.5-0.1-0.2-0.2-0.5-0.1-0.2-0.1-0.5-0.1-0.2-0.1-0.5 0 0.3 0 0.6 0 0.3 0 0.5 0 0.3-0.1 0.6 0 0.3-0.1 0.5-0.1-0.2-0.2-0.5-0.1-0.2-0.1-0.5-0.1-0.2-0.1-0.5-0.1-0.2-0.1-0.5 0 0.5 0 1 0.1 0.5 0.1 0.9 0 0.5-0.1 1 0 0.5 0 0.9-0.2-0.4-0.3-0.9-0.1-0.4-0.2-0.9-0.1-0.4-0.1-0.9-0.1-0.5-0.2-0.9 0.1 0.3 0.1 0.6 0 0.4 0 0.7-0.1 0.4-0.1 0.7 0 0.4-0.1 0.7-0.1-0.3-0.2-0.7-0.1-0.4-0.2-0.7-0.1-0.4-0.1-0.7-0.1-0.4-0.1-0.8 0 0.4 0 0.7 0 0.4 0 0.8 0 0.3-0.1 0.7 0 0.4-0.1 0.7-0.1-0.4-0.2-0.7-0.1-0.4-0.2-0.8 0-0.3-0.1-0.7-0.1-0.4-0.1-0.8 0 0.3 0 0.6 0 0.4 0 0.7 0 0.3-0.1 0.6 0 0.3-0.1 0.6-0.1-0.3-0.2-0.6-0.1-0.3-0.1-0.6-0.1-0.3-0.2-0.7 0-0.3-0.1-0.6 0.1 0.3 0.1 0.7 0 0.4 0 0.7-0.1 0.4-0.1 0.8 0 0.3-0.1 0.7-0.1-0.4-0.2-0.7-0.1-0.4-0.2-0.8-0.1-0.3-0.1-0.7-0.1-0.4-0.1-0.8 0 0.3 0 0.6 0 0.2-0.1 0.5 0 0.3 0 0.5-0.1 0.3-0.1 0.5-0.1-0.2-0.2-0.5-0.1-0.2-0.2-0.5-0.1-0.2-0.1-0.5-0.1-0.2-0.1-0.5 0 0.5 0.1 1 0 0.5 0 1 0 0.4 0 0.9-0.1 0.5-0.1 1-0.1-0.5-0.3-0.9-0.1-0.5-0.2-1-0.1-0.5-0.1-0.9-0.1-0.5-0.2-1 0.1 0.4 0.1 0.7 0 0.4-0.1 0.7 0 0.4 0 0.7 0 0.4-0.1 0.7-0.1-0.4-0.3-0.9-0.1-0.4-0.2-0.8-0.1-0.5-0.1-0.9-0.1-0.5-0.1-0.9-0.1-0.5-0.1-0.9 0-0.5 0-0.9 0-0.5 0.1-0.9 0-0.5 0.1-0.9 0.1 0.3 0.2 0.7 0.1 0.3 0.2 0.7 0 0.4 0.1 0.7 0.1 0.4 0.1 0.7 0-0.4-0.1-0.9 0-0.5 0-0.9 0-0.5 0.1-1 0-0.5 0.1-0.9 0.1 0.4 0.2 0.9 0.1 0.5 0.2 1 0.1 0.5 0.2 1 0 0.5 0.1 1 0-0.3 0-0.5 0-0.3 0-0.5 0-0.3 0.1-0.5 0-0.3 0.1-0.5 0.1 0.2 0.2 0.5 0.1 0.2 0.1 0.5 0.1 0.2 0.2 0.5 0 0.3 0.1 0.5-0.1-0.4-0.1-0.7 0-0.4 0-0.8 0-0.4 0.1-0.7 0-0.4 0.1-0.8 0.1 0.4 0.2 0.7 0.1 0.4 0.2 0.8 0 0.3 0.1 0.7 0.1 0.4 0.1 0.8 0-0.4 0-0.7 0-0.3 0-0.6 0-0.4 0.1-0.7 0-0.3 0.1-0.6 0.1 0.3 0.2 0.6 0.1 0.3 0.2 0.7 0 0.3 0.1 0.6 0 0.4 0.1 0.7 0-0.4-0.1-0.7 0-0.4 0.1-0.8 0-0.3 0-0.7 0-0.4 0.1-0.7 0.1 0.3 0.2 0.7 0.1 0.3 0.2 0.7 0.1 0.4 0.1 0.7 0.1 0.4 0.1 0.8 0-0.4 0-0.8 0-0.3 0-0.7 0-0.3 0.1-0.7 0-0.4 0.1-0.7 0.1 0.3 0.2 0.7 0.1 0.3 0.2 0.7 0.1 0.4 0.1 0.8 0.1 0.3 0.1 0.7 0-0.4 0-0.9 0-0.4 0-0.9 0-0.4 0-0.8 0-0.5 0.1-0.9 0.1 0.4 0.2 0.9 0.1 0.4 0.2 0.9 0.1 0.4 0.2 0.9 0 0.4 0.1 0.9 0-0.3 0-0.5 0-0.3 0-0.6 0-0.2 0.1-0.5 0-0.3 0.1-0.5 0.1 0.2 0.2 0.5 0.1 0.3 0.1 0.5 0.1 0.3 0.2 0.6 0 0.3 0.1 0.5-0.1-0.2-0.1-0.5 0-0.2 0.1-0.5 0-0.2 0.1-0.5 0-0.2 0.1-0.5 0.1 0.3 0.2 0.5 0.1 0.3 0.1 0.6 0.1 0.2 0.2 0.5 0 0.3 0 0.5 0-0.2 0-0.5 0-0.2 0.1-0.5 0-0.2 0-0.5 0.1-0.2 0.1-0.4 0.1 0.2 0.2 0.4 0.1 0.3 0.2 0.5 0.1 0.2 0.1 0.5 0.1 0.2 0.1 0.5 0-0.3 0-0.5 0-0.3 0-0.6 0-0.2 0.1-0.5 0-0.2 0.1-0.5 0.1 0.3 0.2 0.5 0.1 0.3 0.2 0.6 0 0.2 0.1 0.5 0 0.3 0 0.6 0-0.4 0-0.7 0-0.4 0-0.8 0-0.3 0.1-0.7 0-0.3 0.1-0.7 0.1 0.4 0.2 0.7 0.1 0.4 0.2 0.7 0 0.4 0.1 0.8 0.1 0.3 0.1 0.7 0-0.3 0-0.6 0-0.3 0-0.6 0-0.3 0.1-0.6 0-0.2 0.1-0.5 0.1 0.2 0.2 0.5 0.1 0.3 0.2 0.6 0 0.3 0.1 0.6 0 0.2 0.1 0.5-0.1-0.4-0.1-0.9 0-0.5 0-0.9 0-0.5 0-1 0.1-0.4 0.1-0.9 0.1 0.5 0.3 1 0.1 0.4 0.2 0.9 0 0.5 0.1 0.9 0.1 0.5 0.1 1 0-0.6 0-1.2-0.1-0.6-0.1-1.2 0-0.7 0-1.3 0-0.6 0.1-1.2 0.1 0.6 0.2 1.2 0.2 0.5 0.3 1.1 0.1 0.6 0.1 1.2 0.1 0.5 0.2 1.1-0.1-0.3-0.1-0.7 0-0.4 0-0.8 0.1-0.3 0.1-0.7 0-0.4 0.1-0.8 0.1 0.4 0.2 0.7 0.1 0.4 0.2 0.7 0.1 0.4 0.1 0.7 0.1 0.4 0.1 0.8 0-0.5 0-1 0-0.4 0-0.9 0-0.5 0-1 0-0.4 0.1-0.9 0.1 0.5 0.2 1 0.1 0.4 0.2 0.9 0.1 0.5 0.2 1 0.1 0.5 0.1 1 0-0.3 0-0.5 0-0.3 0-0.5 0.1-0.3 0.1-0.5 0-0.3 0.1-0.5 0.1 0.2 0.2 0.5 0.1 0.3 0.2 0.6 0.1 0.2 0.1 0.5 0.1 0.3 0.1 0.6 0-0.4 0-0.8 0-0.4 0-0.8 0-0.4 0-0.7 0-0.4 0.1-0.8 0.1 0.4 0.3 0.8 0.1 0.4 0.2 0.8 0.1 0.3 0.1 0.7 0.1 0.4 0.2 0.9 0-0.4 0-0.8-0.1-0.4 0-0.7 0-0.4 0-0.8 0-0.3 0.1-0.7 0.1 0.3 0.2 0.7 0.1 0.3 0.2 0.7 0.1 0.4 0.1 0.7 0.1 0.4 0.1 0.7 0-0.4 0-0.8 0-0.4 0-0.8 0-0.4 0-0.8 0.1-0.3 0.1-0.7 0.1 0.3 0.2 0.7 0.1 0.3 0.2 0.7 0.1 0.3 0.2 0.7 0 0.3 0.1 0.7-0.1-0.5-0.1-0.9 0-0.5 0-1 0-0.5 0-0.9 0.1-0.5 0.1-1 0.2 0.5 0.3 1 0.1 0.5 0.2 1 0.1 0.4 0.1 0.9 0.1 0.5 0.2 1-0.1-0.2-0.1-0.5 0.1-0.2 0.1-0.5 0-0.2 0-0.5 0.1-0.2 0.2-0.5 0.1 0.3 0.1 0.5 0.1 0.2 0.2 0.5 0.1 0.3 0.1 0.5 0.1 0.3 0.1 0.5 0-0.6-0.1-1.2 0-0.6 0-1.2 0-0.6 0-1.2 0.1-0.6 0.1-1.2 0.1 0.6 0.3 1.1 0.1 0.6 0.2 1.1 0.1 0.6 0.1 1.1 0.1 0.6 0.2 1.1-0.1-0.7-0.1-1.3 0-0.7-0.1-1.3 0-0.7 0-1.4 0.1-0.6 0.1-1.3 0.1 0.7 0.3 1.4 0.1 0.7 0.2 1.4 0.1 0.7 0.2 1.3 0.1 0.7 0.2 1.4 0-0.3-0.1-0.6 0-0.4 0.1-0.7 0-0.4 0-0.7 0.1-0.4 0.1-0.7 0.1 0.3 0.2 0.7 0.1 0.4 0.2 0.7 0.1 0.4 0.1 0.7 0.1 0.4 0.1 0.7 0-0.4 0-0.9 0-0.5 0-0.9 0-0.5 0-1 0-0.5 0-0.9 0.2 0.4 0.3 0.9 0.1 0.5 0.2 1 0.1 0.5 0.2 1 0 0.5 0.1 1 0-0.3 0-0.5 0-0.3 0-0.5 0-0.3 0.1-0.5 0-0.3 0.1-0.5 0.1 0.2 0.2 0.4 0.1 0.3 0.1 0.5 0.1 0.3 0.1 0.5 0.1 0.3 0.1 0.6 0-0.5 0-0.9 0-0.4 0-0.9 0-0.4 0-0.8 0.1-0.5 0.1-0.9 0.1 0.4 0.2 0.8 0.1 0.4 0.2 0.8 0.1 0.4 0.2 0.8 0 0.4 0.1 0.8 0-0.2 0-0.4 0-0.2 0-0.5 0-0.2 0.1-0.4 0-0.2 0.1-0.4 0.1 0.2 0.2 0.5 0.1 0.2 0.2 0.5 0.1 0.3 0.1 0.5 0.1 0.3 0.1 0.6 0-0.2 0-0.3 0-0.1 0.1-0.3 0-0.1 0-0.3 0.1-0.1 0.2-0.2 0.1 0.1 0.2 0.3 0.1 0.2 0.1 0.4 0.1 0.2 0.1 0.4 0.1 0.2 0.1 0.4 0 0.2 0 0.4z"/>
		<path id="Layer" class="s0" d="m309.3 234.1q0.1 0.8 0.1 1.6 0 0.7 0 1.5 0 0.8-0.1 1.6-0.1-0.7-0.3-1.3-0.1-0.7-0.2-1.3-0.1-0.7-0.2-1.3-0.1-0.7-0.1-1.4 0 0.6 0 1.1 0.1 0.5 0.1 1.1 0 0.5-0.1 1.1 0 0.5 0 1-0.2-0.5-0.3-1.1-0.1-0.6-0.2-1.1-0.1-0.6-0.2-1.2-0.1-0.6-0.1-1.2 0 0.4 0 0.7 0 0.4 0 0.7 0 0.4-0.1 0.7 0 0.3-0.1 0.7-0.1-0.4-0.2-0.7-0.1-0.4-0.2-0.8-0.1-0.4-0.1-0.7-0.1-0.4-0.1-0.8 0 0.2 0 0.5 0 0.3 0 0.5-0.1 0.3-0.1 0.5 0 0.3-0.1 0.5-0.1-0.2-0.2-0.4-0.1-0.3-0.2-0.5 0-0.3-0.1-0.5 0-0.3-0.1-0.6 0.1 0.5 0.1 1 0 0.5 0 1 0 0.5 0 1 0 0.4-0.1 0.9-0.1-0.5-0.2-0.9-0.1-0.5-0.2-1-0.1-0.5-0.2-1-0.1-0.5-0.1-1 0 0.3 0 0.6 0 0.2 0 0.5-0.1 0.2-0.1 0.5 0 0.2-0.1 0.4-0.1-0.2-0.2-0.4-0.1-0.3-0.2-0.5 0-0.3-0.1-0.5 0-0.3-0.1-0.6 0.1 0.5 0.1 1 0 0.5 0 1 0 0.5 0 1-0.1 0.4-0.1 0.9-0.1-0.4-0.2-0.9-0.2-0.5-0.2-0.9-0.1-0.5-0.2-1-0.1-0.4-0.1-0.9 0 0.3 0 0.7 0 0.3 0 0.7 0 0.3-0.1 0.7 0 0.3-0.1 0.7-0.1-0.3-0.2-0.7-0.1-0.3-0.1-0.6-0.1-0.4-0.2-0.7 0-0.4-0.1-0.7 0.1 0.7 0.1 1.4 0.1 0.6 0.1 1.3 0 0.7 0 1.4 0 0.7-0.1 1.4-0.1-0.7-0.2-1.3-0.2-0.7-0.3-1.3-0.1-0.7-0.2-1.3-0.1-0.7-0.1-1.4 0 0.6 0 1.1 0.1 0.5 0.1 1.1 0 0.5-0.1 1.1 0 0.5 0 1-0.2-0.5-0.3-1.1-0.1-0.6-0.2-1.2-0.1-0.6-0.2-1.2-0.1-0.6-0.1-1.2 0 0.2 0 0.5 0 0.2-0.1 0.5 0 0.2 0 0.5-0.1 0.2-0.1 0.5-0.2-0.2-0.2-0.5-0.1-0.2-0.2-0.5-0.1-0.2-0.1-0.5-0.1-0.3-0.1-0.5 0 0.5 0.1 1 0 0.4 0 0.9 0 0.5 0 1-0.1 0.5-0.1 1-0.1-0.5-0.3-1-0.1-0.4-0.2-0.9 0-0.5-0.1-0.9-0.1-0.5-0.1-1 0 0.4 0 0.7 0 0.4 0 0.7 0 0.4-0.1 0.7 0 0.4-0.1 0.7-0.1-0.3-0.2-0.6-0.1-0.4-0.1-0.7-0.1-0.3-0.2-0.7 0-0.3-0.1-0.7 0.1 0.7 0.1 1.4 0.1 0.7 0.1 1.4 0 0.7 0 1.3 0 0.7-0.1 1.4-0.1-0.6-0.3-1.3-0.1-0.6-0.2-1.3-0.1-0.6-0.2-1.3-0.1-0.7-0.1-1.3 0 0.5 0 1 0.1 0.6 0.1 1.1 0 0.6-0.1 1.1 0 0.6 0 1.1-0.2-0.6-0.3-1.2-0.1-0.6-0.2-1.2-0.1-0.6-0.2-1.2-0.1-0.6-0.1-1.2 0 0.3 0 0.5 0 0.3-0.1 0.5 0 0.3 0 0.5-0.1 0.3-0.2 0.5-0.1-0.2-0.1-0.5-0.1-0.2-0.2-0.5-0.1-0.2-0.1-0.5-0.1-0.2-0.1-0.5 0 0.5 0.1 1 0 0.5 0 1 0 0.4 0 0.9-0.1 0.5-0.1 1-0.1-0.5-0.3-0.9-0.1-0.5-0.2-1-0.1-0.5-0.2-1-0.1-0.5-0.1-0.9 0 0.3 0 0.7 0 0.3 0 0.7 0 0.3 0 0.7-0.1 0.3-0.1 0.7-0.2-0.4-0.2-0.7-0.1-0.3-0.2-0.7-0.1-0.3-0.2-0.6 0-0.4-0.1-0.7 0.1 0.7 0.1 1.3 0.1 0.7 0.1 1.4 0 0.7 0 1.4 0 0.7-0.1 1.4-0.1-0.7-0.2-1.3-0.2-0.7-0.3-1.4-0.1-0.6-0.2-1.3 0-0.6-0.1-1.3 0 0.5 0.1 1.1 0 0.5 0 1.1 0 0.5 0 1.1-0.1 0.5-0.1 1-0.2-0.6-0.3-1.1-0.1-0.6-0.2-1.2-0.1-0.6-0.2-1.2-0.1-0.6-0.1-1.2 0 0.2 0 0.5 0 0.2-0.1 0.5 0 0.2 0 0.5-0.1 0.2-0.1 0.5-0.1-0.3-0.2-0.5-0.1-0.3-0.2-0.5 0-0.3-0.1-0.5-0.1-0.3-0.1-0.5 0.1 0.5 0.1 0.9 0 0.5 0 1 0 0.5 0 1 0 0.5-0.1 0.9-0.1-0.4-0.2-0.9-0.1-0.4-0.2-0.9-0.1-0.5-0.2-0.9-0.1-0.5-0.1-1 0 0.4 0 0.7 0 0.4 0 0.7 0 0.4 0 0.7-0.1 0.4-0.1 0.7-0.2-0.3-0.3-0.7-0.1-0.4-0.2-0.7 0-0.4-0.1-0.8-0.1-0.4-0.1-0.7 0 0.2 0 0.5 0 0.2 0 0.5 0 0.2-0.1 0.5 0 0.2-0.1 0.5-0.1-0.3-0.2-0.5-0.1-0.3-0.2-0.5 0-0.3-0.1-0.5 0-0.3-0.1-0.5 0.1 0.2 0 0.4 0 0.2 0 0.5 0 0.2-0.1 0.4 0 0.2-0.1 0.4-0.1-0.2-0.2-0.4-0.1-0.2-0.1-0.4-0.1-0.3-0.2-0.5 0-0.2 0-0.4 0 0.1 0 0.3 0 0.2-0.1 0.4 0 0.2-0.1 0.4 0 0.1-0.1 0.3-0.1-0.1-0.2-0.3 0-0.2-0.1-0.4-0.1-0.1-0.1-0.3-0.1-0.2-0.1-0.4 0 0.2 0 0.4 0 0.2 0 0.4-0.1 0.2-0.1 0.3-0.1 0.2-0.1 0.4-0.1-0.2-0.2-0.3-0.1-0.2-0.2-0.4 0-0.2-0.1-0.4 0-0.2-0.1-0.4 0 0.2 0 0.4 0 0.2 0 0.4 0 0.2-0.1 0.3 0 0.2-0.1 0.4-0.1-0.2-0.2-0.4-0.1-0.1-0.1-0.3-0.1-0.2-0.2-0.4 0-0.2 0-0.4 0 0.1 0 0.3 0 0.2-0.1 0.4 0 0.2-0.1 0.4 0 0.2-0.1 0.3-0.1-0.1-0.2-0.3-0.1-0.2-0.1-0.4-0.1-0.2-0.1-0.4-0.1-0.2-0.1-0.4 0 0.2 0 0.4 0 0.2-0.1 0.4 0 0.2 0 0.5-0.1 0.2-0.2 0.4-0.1-0.2-0.2-0.5 0-0.2-0.1-0.4-0.1-0.2-0.1-0.5-0.1-0.2-0.1-0.4 0 0.3 0 0.5 0 0.3 0 0.6 0 0.2-0.1 0.5 0 0.3-0.1 0.5-0.1-0.2-0.2-0.5-0.1-0.3-0.2-0.5 0-0.3-0.1-0.6 0-0.2-0.1-0.5 0.1 0.4 0.1 0.8 0 0.4 0 0.9 0 0.4-0.1 0.8 0 0.4 0 0.8-0.2-0.4-0.3-0.8-0.1-0.4-0.2-0.8 0-0.4-0.1-0.8-0.1-0.4-0.1-0.8 0 0.3 0 0.7 0 0.4 0 0.8 0 0.3 0 0.7-0.1 0.4-0.1 0.8-0.2-0.4-0.3-0.7-0.1-0.4-0.1-0.8-0.1-0.3-0.2-0.7 0-0.4-0.1-0.7 0 0.3 0 0.7 0.1 0.4 0 0.7 0 0.4 0 0.8-0.1 0.3-0.1 0.7-0.1-0.4-0.2-0.7-0.1-0.3-0.2-0.7-0.1-0.3-0.1-0.7-0.1-0.3-0.1-0.6 0 0.6 0.1 1.3 0 0.7 0 1.4 0 0.7 0 1.4 0 0.7 0 1.4-0.2-0.7-0.3-1.3-0.1-0.7-0.2-1.4-0.1-0.6-0.2-1.3-0.1-0.6-0.2-1.3 0.1 0.5 0.1 1.1 0 0.5 0 1.1 0 0.5 0 1.1 0 0.5-0.1 1-0.1-0.6-0.3-1.1-0.1-0.6-0.2-1.2-0.1-0.6-0.2-1.2 0-0.6-0.1-1.2 0 0.2 0 0.5 0 0.2 0 0.5 0 0.2-0.1 0.5 0 0.2-0.1 0.5-0.1-0.3-0.2-0.5-0.1-0.3-0.1-0.5-0.1-0.3-0.2-0.5 0-0.3 0-0.5 0 0.5 0 0.9 0 0.5 0 1 0 0.5 0 1 0 0.4 0 0.9-0.2-0.4-0.3-0.9-0.1-0.5-0.2-0.9-0.1-0.5-0.2-1 0-0.4-0.1-0.9 0.1 0.3 0.1 0.7 0 0.3-0.1 0.7 0 0.4 0 0.7 0 0.4-0.1 0.7-0.1-0.4-0.2-0.7-0.1-0.4-0.2-0.8-0.1-0.4-0.2-0.8 0-0.4-0.1-0.8 0.1 0.6 0.1 1.1 0 0.5 0 1.1 0 0.5 0 1 0 0.6-0.1 1.1-0.1-0.5-0.2-1-0.1-0.6-0.2-1.1-0.1-0.5-0.2-1.1-0.1-0.5-0.1-1 0 0.5 0 1.1 0.1 0.5 0.1 1.1 0 0.6-0.1 1.1 0 0.6 0 1.1-0.2-0.5-0.3-1-0.1-0.6-0.2-1.1-0.1-0.5-0.2-1.1 0-0.5-0.1-1 0 0.3 0 0.7 0 0.3 0 0.7 0 0.3 0 0.7-0.1 0.3-0.1 0.7-0.1-0.4-0.2-0.7-0.2-0.4-0.2-0.8-0.1-0.4-0.2-0.7 0-0.4-0.1-0.8 0 0.3 0 0.5 0 0.3 0 0.5 0 0.3-0.1 0.6 0 0.2-0.1 0.5-0.1-0.3-0.2-0.5-0.1-0.3-0.1-0.5-0.1-0.3-0.1-0.5-0.1-0.3-0.1-0.5 0 0.4 0 0.9 0.1 0.5 0.1 1 0 0.5-0.1 1 0 0.4 0 0.9-0.2-0.4-0.3-0.9-0.1-0.4-0.2-0.9-0.1-0.4-0.1-0.9-0.1-0.4-0.1-0.9 0 0.2 0 0.5 0 0.2-0.1 0.4 0 0.2 0 0.4-0.1 0.2-0.2 0.5-0.1-0.2-0.2-0.5 0-0.2-0.1-0.4-0.1-0.2-0.1-0.4-0.1-0.2-0.1-0.5 0 0.2 0 0.3 0 0.2-0.1 0.4 0 0.1-0.1 0.3 0 0.1-0.1 0.2-0.1-0.1-0.2-0.3-0.1-0.2-0.2-0.4 0-0.2-0.1-0.4 0-0.2 0-0.4 0-0.2 0-0.3 0-0.2 0-0.4 0-0.2 0.1-0.4 0.1-0.2 0.1-0.4 0.1 0.2 0.2 0.3 0.1 0.2 0.2 0.3 0 0.1 0.1 0.3 0 0.1 0 0.3 0-0.2 0-0.5 0-0.2 0-0.5 0.1-0.2 0.1-0.4 0.1-0.3 0.2-0.5 0 0.2 0.1 0.4 0.1 0.2 0.2 0.4 0 0.2 0.1 0.3 0 0.2 0.1 0.4-0.1-0.5-0.1-1.1-0.1-0.5-0.1-1.1 0-0.5 0.1-1.1 0-0.5 0.1-1.1 0.1 0.5 0.2 1 0.1 0.5 0.2 1 0.1 0.5 0.2 1 0.1 0.4 0.1 0.9 0-0.2 0-0.5 0-0.2 0-0.5 0-0.2 0.1-0.5 0-0.2 0.1-0.5 0.1 0.3 0.2 0.5 0.1 0.3 0.2 0.6 0 0.2 0.1 0.5 0 0.3 0.1 0.5-0.1-0.4-0.1-0.7 0-0.4 0-0.8 0-0.4 0.1-0.7 0-0.4 0.1-0.8 0.1 0.3 0.2 0.7 0.1 0.3 0.2 0.7 0 0.3 0.1 0.6 0.1 0.4 0.1 0.7 0-0.5-0.1-1.1 0-0.6 0-1.2 0-0.5 0-1.1 0.1-0.6 0.1-1.1 0.1 0.5 0.2 0.9 0.1 0.5 0.2 1 0.1 0.5 0.2 1.1 0.1 0.5 0.1 1 0-0.6-0.1-1.3 0-0.6 0-1.2 0-0.6 0-1.2 0-0.6 0.1-1.2 0.1 0.6 0.3 1.3 0.1 0.7 0.2 1.3 0.1 0.7 0.2 1.4 0.1 0.7 0.2 1.3-0.1-0.3-0.1-0.6 0-0.3 0.1-0.7 0-0.3 0-0.6 0-0.3 0.1-0.6 0.1 0.3 0.2 0.7 0.1 0.3 0.2 0.7 0.1 0.3 0.1 0.7 0.1 0.3 0.1 0.7 0-0.5 0-0.9 0-0.5 0-1 0-0.5 0-0.9 0-0.5 0-1 0.2 0.5 0.3 1 0.1 0.5 0.2 1 0.1 0.4 0.2 0.9 0 0.5 0.1 1 0-0.2 0-0.5 0-0.2 0-0.5 0-0.2 0.1-0.5 0-0.2 0.1-0.5 0.1 0.3 0.2 0.5 0.1 0.3 0.1 0.5 0.1 0.3 0.1 0.5 0.1 0.3 0.1 0.5 0-0.6 0-1.2-0.1-0.6-0.1-1.2 0-0.6 0.1-1.2 0-0.6 0-1.2 0.2 0.6 0.3 1.1 0.1 0.6 0.2 1.1 0.1 0.6 0.2 1.1 0.1 0.6 0.1 1.1 0-0.7-0.1-1.3 0-0.7 0-1.3 0-0.7 0-1.4 0-0.6 0-1.3 0.2 0.7 0.3 1.4 0.1 0.7 0.3 1.4 0.1 0.7 0.1 1.3 0.1 0.7 0.2 1.4 0-0.3 0-0.6 0-0.4 0-0.7 0-0.4 0-0.7 0.1-0.4 0.1-0.7 0.2 0.4 0.3 0.7 0.1 0.4 0.1 0.7 0.1 0.4 0.2 0.8 0 0.3 0.1 0.7 0-0.3-0.1-0.7 0-0.4 0.1-0.7 0-0.4 0-0.8 0-0.3 0.1-0.7 0.1 0.3 0.2 0.6 0.1 0.3 0.2 0.6 0 0.4 0.1 0.7 0.1 0.3 0.1 0.6 0-0.4-0.1-0.9 0-0.4 0-0.9 0-0.5 0.1-0.9 0-0.5 0.1-0.9 0.1 0.4 0.2 0.9 0.1 0.5 0.2 1 0.1 0.4 0.2 0.9 0.1 0.5 0.1 1 0-0.3 0-0.5 0-0.3 0-0.5 0.1-0.3 0.1-0.5 0-0.2 0.1-0.5 0.1 0.3 0.2 0.6 0.1 0.2 0.2 0.5 0 0.3 0.1 0.6 0 0.3 0.1 0.5 0-0.2 0-0.4 0-0.2 0-0.5 0-0.2 0.1-0.4 0-0.2 0.1-0.4 0.1 0.2 0.2 0.4 0.1 0.3 0.2 0.5 0 0.3 0.1 0.5 0 0.3 0.1 0.5 0-0.2 0-0.4 0-0.1 0-0.3 0.1-0.2 0.1-0.4 0.1-0.2 0.1-0.3 0.1 0.2 0.2 0.3 0.1 0.2 0.2 0.4 0 0.2 0.1 0.4 0 0.2 0 0.4 0-0.2 0-0.4 0-0.2 0.1-0.4 0-0.2 0.1-0.3 0-0.2 0.1-0.4 0.1 0.2 0.2 0.4 0.1 0.2 0.1 0.4 0.1 0.2 0.1 0.4 0.1 0.2 0.1 0.4 0-0.2 0-0.4 0-0.2 0.1-0.3 0-0.2 0-0.4 0.1-0.2 0.2-0.3 0.1 0.1 0.1 0.3 0.1 0.2 0.2 0.3 0.1 0.2 0.1 0.4 0.1 0.2 0.1 0.4 0-0.2 0-0.4 0-0.2 0-0.4 0-0.2 0.1-0.4 0-0.2 0.1-0.4 0.1 0.2 0.2 0.4 0.1 0.2 0.2 0.3 0 0.2 0.1 0.4 0 0.2 0 0.4 0-0.2 0-0.5 0-0.2 0.1-0.4 0-0.3 0-0.5 0.1-0.2 0.2-0.4 0.1 0.2 0.1 0.4 0.1 0.2 0.2 0.4 0.1 0.2 0.1 0.4 0.1 0.2 0.1 0.5 0-0.3 0-0.6 0-0.2 0-0.5 0-0.3 0.1-0.5 0-0.3 0.1-0.6 0.1 0.3 0.2 0.5 0.1 0.3 0.1 0.5 0.1 0.3 0.2 0.5 0 0.3 0 0.5 0-0.3 0-0.7 0-0.4 0-0.8 0-0.3 0.1-0.7 0-0.4 0.1-0.8 0.1 0.4 0.2 0.7 0.1 0.4 0.1 0.7 0.1 0.4 0.2 0.7 0 0.4 0.1 0.7-0.1-0.5-0.1-0.9 0-0.5 0-1 0-0.5 0-0.9 0-0.5 0.1-1 0.1 0.5 0.2 1 0.2 0.5 0.2 0.9 0.1 0.5 0.2 1 0.1 0.5 0.1 1 0-0.2 0-0.5 0-0.2 0.1-0.5 0-0.2 0-0.5 0.1-0.2 0.1-0.5 0.1 0.2 0.2 0.5 0.1 0.2 0.2 0.5 0 0.2 0.1 0.5 0 0.3 0.1 0.5-0.1-0.6-0.1-1.2 0-0.6 0-1.2 0-0.6 0-1.2 0-0.6 0.1-1.2 0.1 0.6 0.2 1.1 0.2 0.6 0.2 1.1 0.1 0.5 0.2 1.1 0.1 0.5 0.2 1.1-0.1-0.7-0.1-1.3-0.1-0.7-0.1-1.3 0-0.7 0-1.4 0-0.6 0.1-1.3 0.1 0.7 0.3 1.4 0.1 0.7 0.2 1.4 0.1 0.6 0.2 1.3 0.1 0.7 0.2 1.4-0.1-0.3-0.1-0.7 0-0.3 0-0.6 0.1-0.4 0.1-0.7 0-0.4 0.1-0.7 0.1 0.3 0.2 0.7 0.1 0.3 0.2 0.7 0.1 0.4 0.1 0.7 0.1 0.4 0.1 0.7 0-0.4 0-0.9 0-0.5 0-1 0-0.4 0-0.9 0-0.5 0.1-0.9 0.1 0.4 0.2 0.9 0.1 0.5 0.2 1 0.1 0.5 0.2 1 0.1 0.5 0.1 1 0-0.3 0-0.6 0-0.2 0-0.5 0.1-0.2 0.1-0.5 0-0.2 0.1-0.4 0.1 0.2 0.2 0.4 0.1 0.3 0.1 0.5 0.1 0.3 0.2 0.5 0 0.3 0.1 0.6-0.1-0.6-0.1-1.2 0-0.6 0-1.2 0-0.6 0-1.2 0-0.6 0.1-1.2 0.1 0.5 0.2 1.1 0.1 0.5 0.2 1 0.1 0.6 0.2 1.1 0.1 0.6 0.1 1.1 0-0.6-0.1-1.3 0-0.6 0-1.3 0-0.7 0-1.3 0-0.7 0-1.4 0.2 0.7 0.3 1.4 0.2 0.7 0.3 1.4 0.1 0.7 0.2 1.4 0.1 0.7 0.1 1.4 0-0.4 0-0.7 0-0.4 0-0.7 0-0.3 0.1-0.7 0-0.3 0.1-0.7 0.1 0.4 0.2 0.7 0.1 0.4 0.2 0.7 0 0.4 0.1 0.8 0.1 0.3 0.1 0.7 0-0.5-0.1-1 0-0.4 0-0.9 0-0.5 0-1 0.1-0.4 0.1-0.9 0.1 0.5 0.3 1 0.1 0.4 0.2 0.9 0.1 0.5 0.2 1 0 0.5 0.1 1 0-0.3 0-0.5 0-0.3 0-0.5 0-0.3 0.1-0.5 0-0.3 0.1-0.5 0.1 0.2 0.2 0.5 0.1 0.2 0.1 0.5 0.1 0.2 0.2 0.5 0 0.2 0.1 0.5-0.1-0.6-0.1-1.2 0-0.6 0-1.2 0-0.6 0-1.2 0-0.6 0.1-1.2 0.1 0.5 0.2 1.1 0.1 0.5 0.2 1.1 0.1 0.5 0.2 1.1 0.1 0.5 0.1 1.1 0-0.7-0.1-1.4 0-0.6 0-1.3 0-0.6 0-1.3 0-0.7 0-1.3 0.2 0.7 0.3 1.3 0.2 0.7 0.3 1.4 0.1 0.7 0.2 1.4 0.1 0.7 0.1 1.4 0-0.3 0-0.7 0-0.3 0-0.7 0-0.3 0.1-0.7 0-0.3 0.1-0.6 0.1 0.3 0.2 0.7 0.1 0.3 0.1 0.7 0.1 0.3 0.2 0.7 0 0.3 0.1 0.7-0.1-0.5-0.1-0.9 0-0.5 0-1 0-0.5 0-0.9 0-0.5 0.1-1 0.1 0.5 0.2 1 0.2 0.5 0.2 1 0.1 0.4 0.2 0.9 0.1 0.5 0.1 1 0-0.2 0-0.5 0-0.2 0-0.5 0.1-0.2 0.1-0.5 0.1-0.2 0.1-0.5 0.1 0.3 0.2 0.5 0.1 0.2 0.2 0.5 0 0.3 0.1 0.5 0 0.3 0.1 0.5-0.1-0.5-0.1-1 0-0.4 0-0.9 0-0.5 0-1 0-0.5 0.1-1 0.1 0.5 0.2 1 0.1 0.5 0.2 1 0.1 0.4 0.2 0.9 0.1 0.5 0.1 1 0-0.2 0-0.5 0-0.2 0-0.5 0.1-0.2 0.1-0.5 0.1-0.2 0.1-0.5 0.1 0.3 0.2 0.5 0.1 0.3 0.2 0.5 0 0.3 0.1 0.6 0.1 0.2 0.1 0.5 0-0.4 0-0.8-0.1-0.3 0-0.7 0-0.4 0-0.8 0-0.3 0.1-0.7 0.1 0.3 0.2 0.7 0.1 0.3 0.2 0.7 0 0.3 0.1 0.7 0 0.3 0.1 0.7-0.1-0.6-0.1-1.2 0-0.6 0-1.2 0-0.6 0-1.1 0-0.6 0.1-1.2 0.1 0.5 0.2 1.1 0.1 0.5 0.2 1.1 0.1 0.5 0.2 1.1 0.1 0.5 0.1 1.1 0-0.7-0.1-1.3 0-0.7 0-1.4 0-0.6 0-1.3 0-0.7 0-1.3 0.2 0.8 0.4 1.6 0.1 0.7 0.3 1.5 0.1 0.8 0.2 1.6 0.1 0.8 0.1 1.6 0.1 0.8 0.1 1.6z"/>
		<path id="Layer" class="s9" d="m262.8 240.6h-0.6l-1.4-16.2h0.5l1.4 16.2z"/>
		<path id="Layer" class="s9" d="m277.4 250.5h-3.1l-0.3-4.2h3l0.4 4.2z"/>
		<path id="Layer" fill-rule="evenodd" class="s0" d="m262.1 249h-1.6l-0.3 0.8h-0.3l1-3h0.4l1.6 3h-0.4zm-0.1-0.2l-0.9-1.7-0.5 1.7z"/>
		<path id="Layer" fill-rule="evenodd" class="s0" d="m266.2 249c0.1 0.5-0.3 0.8-1 0.8h-1.4l-0.3-3h1.3c0.7 0 1.1 0.3 1.1 0.8q0 0.1 0 0.2 0 0.1 0 0.2-0.1 0.1-0.2 0.2-0.1 0-0.2 0.1 0.2 0 0.3 0 0.1 0.1 0.2 0.2 0.1 0.1 0.1 0.2 0.1 0.2 0.1 0.3zm-2.3-1.9l0.1 1.1h0.9c0.5 0 0.8-0.2 0.7-0.6 0-0.3-0.3-0.5-0.8-0.5zm2 1.9c0-0.4-0.3-0.6-0.8-0.6h-1.1l0.2 1.1h1c0.5 0.1 0.8-0.1 0.7-0.5z"/>
		<path id="Layer" class="s0" d="m267 248.3q0-0.3 0.1-0.6 0-0.2 0.3-0.5 0.2-0.2 0.4-0.3 0.3-0.1 0.6-0.1 0.2 0 0.3 0 0.2 0.1 0.3 0.1 0.2 0.1 0.3 0.2 0.1 0 0.2 0.1l-0.1 0.2q-0.1 0-0.2-0.1-0.1-0.1-0.3-0.1-0.1-0.1-0.2-0.1-0.1 0-0.3 0-0.2 0-0.4 0.1-0.2 0.1-0.4 0.2-0.2 0.2-0.3 0.5 0 0.2 0 0.4 0 0.3 0.1 0.5 0.2 0.3 0.3 0.4 0.2 0.2 0.5 0.3 0.2 0.1 0.5 0.1 0.1 0 0.2 0 0.1-0.1 0.2-0.1 0.1-0.1 0.2-0.1 0.1-0.1 0.2-0.2l0.2 0.2q-0.1 0.1-0.2 0.2-0.1 0.1-0.2 0.1-0.1 0.1-0.3 0.1-0.1 0.1-0.3 0.1-0.3 0-0.6-0.1-0.3-0.1-0.5-0.4-0.3-0.2-0.4-0.5-0.2-0.2-0.2-0.6z"/>
		<path id="Layer" fill-rule="evenodd" class="s0" d="m270.6 246.8h1.2q0.4 0 0.7 0.1 0.3 0.1 0.5 0.3 0.2 0.2 0.4 0.5 0.1 0.3 0.2 0.6 0 0.3-0.1 0.6-0.1 0.3-0.3 0.5-0.2 0.3-0.5 0.4-0.3 0.1-0.6 0h-1.2zm1.4 2.8q0.3 0 0.5-0.1 0.3-0.1 0.4-0.3 0.2-0.1 0.3-0.4 0.1-0.2 0-0.5 0-0.2-0.1-0.5-0.1-0.2-0.3-0.4-0.2-0.1-0.5-0.2-0.2-0.1-0.5-0.1h-0.8l0.2 2.5z"/>
		<path id="Layer" class="s0" d="m276.9 249.6v0.2h-2.1l-0.3-3h2v0.3h-1.6l0.1 1.1h1.5v0.2h-1.5l0.1 1.2z"/>
		<path id="Layer" class="s0" d="m278.2 247.1l0.1 1.2h1.5v0.3h-1.5l0.1 1.2h-0.3l-0.3-3h2v0.3z"/>
		<path id="Layer" class="s0" d="m283.1 248.3h0.3l0.1 1.2q-0.1 0.1-0.2 0.1-0.1 0.1-0.3 0.2-0.1 0-0.2 0-0.2 0.1-0.3 0.1-0.3 0-0.6-0.1-0.3-0.2-0.6-0.4-0.2-0.2-0.4-0.5-0.1-0.3-0.1-0.6-0.1-0.3 0-0.6 0.1-0.2 0.3-0.5 0.2-0.2 0.5-0.3 0.3-0.1 0.6-0.1 0.2 0 0.3 0 0.2 0.1 0.3 0.1 0.2 0.1 0.3 0.1 0.1 0.1 0.2 0.2l-0.1 0.2q-0.1 0-0.2-0.1-0.1-0.1-0.3-0.1-0.1-0.1-0.2-0.1-0.1 0-0.3 0-0.2 0-0.4 0.1-0.3 0.1-0.4 0.2-0.2 0.2-0.3 0.5-0.1 0.2 0 0.4 0 0.3 0.1 0.5 0.1 0.3 0.3 0.4 0.2 0.2 0.5 0.3 0.2 0.1 0.5 0.1 0.1 0 0.2 0 0.1 0 0.2-0.1 0.1 0 0.1 0 0.1-0.1 0.2-0.1z"/>
		<path id="Layer" class="s0" d="m287.1 246.8l0.2 3h-0.3l-0.1-1.3h-1.8l0.1 1.3h-0.3l-0.3-3h0.3l0.1 1.4h1.9l-0.1-1.4z"/>
		<path id="Layer" class="s0" d="m288.5 246.8h0.3l0.3 3h-0.3z"/>
		<path id="Layer" class="s0" d="m289.9 249.4l0.2-0.2q0 0.1 0.1 0.2 0.1 0 0.2 0.1 0.1 0 0.2 0.1 0.1 0 0.2 0 0.5 0 0.5-0.7l-0.2-1.8h-1.1v-0.3h1.4l0.2 2.1c0 0.7-0.2 1-0.8 1q-0.1 0-0.3 0-0.1-0.1-0.2-0.1-0.1-0.1-0.2-0.2-0.1-0.1-0.2-0.2z"/>
		<path id="Layer" class="s0" d="m293.8 248.4l-0.6 0.6 0.1 0.8h-0.3l-0.3-3h0.3l0.2 1.8 1.6-1.8h0.4l-1.2 1.4 1.5 1.6h-0.4z"/>
		<path id="Layer" class="s0" d="m296.2 246.8h0.3l0.2 2.8h1.7v0.2h-2z"/>
		<path id="Layer" class="s0" d="m302.2 246.8l0.3 3h-0.4l-0.2-2.4-1 2h-0.1l-1.3-2 0.2 2.4h-0.3l-0.3-3h0.3l1.4 2.2 1.1-2.2z"/>
		<path id="Layer" class="s0" d="m261.7 252l0.2 3h-0.2l-2.2-2.4 0.3 2.4h-0.3l-0.3-3h0.2l2.2 2.4-0.2-2.4z"/>
		<path id="Layer" fill-rule="evenodd" class="s0" d="m262.9 253.5q0-0.3 0.1-0.6 0.1-0.3 0.3-0.5 0.2-0.3 0.5-0.4 0.2-0.1 0.6-0.1 0.3 0 0.6 0.1 0.3 0.2 0.5 0.4 0.2 0.2 0.4 0.5 0.1 0.3 0.1 0.6 0.1 0.3 0 0.6-0.1 0.2-0.3 0.5-0.2 0.2-0.5 0.3-0.3 0.1-0.6 0.1-0.3 0-0.6-0.1-0.3-0.1-0.5-0.3-0.3-0.2-0.4-0.5-0.1-0.3-0.2-0.6zm2.8 0q0-0.3-0.1-0.5-0.1-0.2-0.3-0.4-0.2-0.2-0.4-0.3-0.3-0.1-0.5-0.1-0.3 0-0.5 0.1-0.2 0.1-0.4 0.3-0.1 0.2-0.2 0.4-0.1 0.2-0.1 0.5 0.1 0.2 0.2 0.5 0.1 0.2 0.3 0.4 0.2 0.1 0.4 0.2 0.2 0.1 0.5 0.1 0.2 0 0.5-0.1 0.2-0.1 0.4-0.2 0.1-0.2 0.2-0.5 0.1-0.2 0-0.4z"/>
		<path id="Layer" fill-rule="evenodd" class="s0" d="m269.5 253c0 0.6-0.4 1-1.2 1h-0.8l0.1 0.9h-0.3l-0.3-3h1.1q0.3 0 0.5 0.1 0.2 0 0.4 0.2 0.2 0.1 0.3 0.4 0.1 0.2 0.2 0.4zm-0.4 0c0-0.5-0.3-0.8-1-0.8h-0.8l0.2 1.6 0.8-0.1c0.6 0 0.9-0.2 0.8-0.7z"/>
		<path id="Layer" fill-rule="evenodd" class="s0" d="m273.8 255.2q-0.1 0.1-0.1 0.2-0.1 0-0.2 0.1-0.1 0-0.2 0.1-0.1 0-0.2 0-0.2 0-0.3-0.1-0.2 0-0.3-0.1-0.2-0.1-0.3-0.2-0.1-0.1-0.2-0.2-0.3 0-0.6-0.1-0.3-0.1-0.5-0.3-0.2-0.3-0.4-0.5-0.1-0.3-0.1-0.6-0.1-0.3 0-0.6 0.1-0.3 0.3-0.5 0.2-0.3 0.5-0.4 0.3-0.1 0.6-0.1 0.3 0 0.6 0.1 0.3 0.2 0.5 0.4 0.3 0.2 0.4 0.5 0.1 0.3 0.2 0.6 0 0.2-0.1 0.5 0 0.2-0.2 0.4-0.1 0.2-0.3 0.4-0.3 0.1-0.5 0.2 0 0 0.1 0.1 0.1 0.1 0.2 0.1 0.1 0.1 0.2 0.1 0.1 0 0.2 0 0 0 0.1 0 0.1 0 0.2-0.1 0 0 0.1 0 0.1-0.1 0.1-0.2zm-1.7-0.5q0.2 0 0.4-0.1 0.3 0 0.4-0.2 0.2-0.2 0.3-0.4 0-0.3 0-0.5 0-0.3-0.1-0.5-0.1-0.2-0.3-0.4-0.2-0.2-0.5-0.3-0.2-0.1-0.5 0-0.2-0.1-0.4 0-0.3 0.1-0.4 0.3-0.2 0.2-0.3 0.4 0 0.2 0 0.5 0 0.2 0.1 0.5 0.2 0.2 0.3 0.4 0.2 0.2 0.5 0.2 0.2 0.1 0.5 0.1z"/>
		<path id="Layer" fill-rule="evenodd" class="s0" d="m276.8 255l-0.8-1h-1l0.1 0.9h-0.3l-0.3-3h1.2q0.2 0 0.4 0.1 0.2 0 0.4 0.2 0.2 0.1 0.3 0.3 0.1 0.2 0.2 0.4 0 0.2-0.1 0.4 0 0.1-0.1 0.2 0 0.2-0.2 0.3-0.1 0-0.2 0.1l0.8 1zm-0.2-2c0-0.5-0.4-0.8-1-0.8h-0.8l0.1 1.5h0.8c0.6 0 0.9-0.2 0.9-0.7z"/>
		<path id="Layer" class="s0" d="m277.9 254.6l0.1-0.2q0.1 0 0.3 0.1 0.1 0.1 0.2 0.1 0.1 0.1 0.3 0.1 0.1 0 0.2 0c0.6 0 0.8-0.2 0.8-0.5-0.1-0.8-1.9-0.3-2-1.4 0-0.5 0.3-0.9 1-0.9q0.2 0 0.3 0.1 0.1 0 0.2 0 0.1 0 0.3 0.1 0.1 0 0.2 0.1l-0.1 0.3q-0.1-0.1-0.2-0.1-0.1-0.1-0.2-0.1-0.1-0.1-0.2-0.1-0.1 0-0.2 0c-0.6 0-0.8 0.3-0.8 0.6 0.1 0.8 1.9 0.3 2 1.4 0 0.4-0.3 0.8-1 0.8q-0.2 0-0.3 0-0.2 0-0.3-0.1-0.2 0-0.3-0.1-0.1-0.1-0.3-0.2z"/>
		<path id="Layer" class="s0" d="m281.6 252.3l-1-0.1v-0.2h2.4v0.2h-1l0.2 2.8h-0.3z"/>
		<path id="Layer" class="s0" d="m283.9 253.7l-0.1-1.7h0.3l0.1 1.7c0.1 0.7 0.5 1 1 1 0.6 0 0.9-0.3 0.8-1l-0.1-1.7h0.3l0.2 1.7c0 0.9-0.4 1.3-1.1 1.3q-0.3 0-0.6-0.1-0.2-0.1-0.4-0.3-0.2-0.1-0.3-0.4-0.1-0.2-0.1-0.5z"/>
		<path id="Layer" class="s0" d="m290 252l-1 3h-0.3l-1.6-3h0.3l1.4 2.6 0.9-2.6z"/>
		<path id="Layer" class="s0" d="m295 252l-0.7 3h-0.3l-1.1-2.6-0.6 2.6h-0.4l-1.2-3h0.3l1.1 2.6 0.6-2.6h0.3l1.1 2.6 0.7-2.6z"/>
		<path id="Layer" class="s0" d="m298.1 255l-1.1-1.3-0.8 1.3h-0.3l1-1.5-1.2-1.5h0.3l1 1.2 0.8-1.2h0.3l-0.9 1.4 1.3 1.6z"/>
		<path id="Layer" class="s0" d="m300.3 253.9l0.1 1h-0.3l-0.1-1-1.4-2h0.3l1.2 1.7 0.9-1.6h0.3z"/>
		<path id="Layer" class="s0" d="m304.6 254.7v0.3h-2.4v-0.2l1.7-2.5h-1.9v-0.3h2.3l0.1 0.2-1.8 2.5z"/>
		<path id="Layer" class="s3" d="m179.5 262.5c-12 0-17-29.9-21.9-58.9-3.7-22-7.2-42.9-13.3-47.9q0 0-0.1-0.1 0-0.1 0-0.2-0.1-0.1 0-0.2 0-0.1 0.1-0.2 0 0 0.1-0.1 0.1 0 0.2 0 0.1-0.1 0.2 0 0.1 0 0.2 0.1c6.3 5.2 9.9 26.2 13.6 48.4 4.6 27.2 9.8 58.1 20.9 58.1 10.2 0 15.3-15.4 19-26.7 2.4-7.3 4.1-12.6 6.7-12.6h1.7q0.2 0 0.4 0.1 0.1 0.2 0.1 0.4 0 0.2-0.1 0.3-0.2 0.2-0.4 0.2h-1.7c-1.9 0-3.8 5.8-5.8 12-3.8 11.5-8.9 27.3-19.9 27.3z"/>
		<path id="Layer" class="s3" d="m203.8 218.3h43v60h-43z"/>
		<path id="Layer" class="s4" d="m226.8 218.3h19.9v60h-19.9z"/>
		<path id="Layer" class="s4" d="m212 218.3l14.8 40.4h19.9l0.1 1.4h-20l-17.4-41.8h2.6z"/>
		<path id="Layer" class="s10" d="m238.5 233.3v1.2c0.4 0.1 0.7 0.3 1 0.6 0.2 0.3 0.3 0.7 0.3 1.1 0 0.3-0.1 0.7-0.3 1-0.3 0.3-0.6 0.5-1 0.6v20.7h-0.8v-20.7c-0.3-0.1-0.7-0.3-0.9-0.6-0.3-0.3-0.4-0.7-0.4-1 0-0.4 0.1-0.8 0.4-1.1 0.2-0.3 0.6-0.5 0.9-0.6v-1.1c-0.7-0.1-1.3-0.5-1.8-1-0.5-0.5-0.7-1.2-0.7-1.9 0-0.8 0.2-1.5 0.7-2 0.5-0.5 1.1-0.9 1.8-0.9v-9.3h0.8v9.3c0.7 0 1.4 0.4 1.9 0.9 0.4 0.5 0.7 1.2 0.7 2 0 0.7-0.3 1.4-0.7 1.9-0.5 0.5-1.2 0.9-1.9 0.9z"/>
		<path id="Layer" class="s4" d="m240.6 230.4c0 1-0.6 1.9-1.5 2.3-0.9 0.4-2 0.2-2.7-0.5-0.7-0.7-0.9-1.8-0.5-2.7 0.4-0.9 1.2-1.5 2.2-1.5q0.5 0 1 0.2 0.4 0.2 0.8 0.5 0.3 0.4 0.5 0.8 0.2 0.5 0.2 0.9z"/>
		<path id="Layer" class="s4" d="m239.3 236.2c0 0.4-0.2 0.9-0.7 1.1-0.5 0.2-1 0.1-1.3-0.3-0.4-0.3-0.5-0.9-0.3-1.3 0.2-0.5 0.6-0.8 1.1-0.8q0.3 0 0.5 0.1 0.2 0.1 0.4 0.3 0.2 0.2 0.3 0.4 0 0.2 0 0.5z"/>
		<path id="Layer" class="s3" d="m200.9 399.1c0-1.5 1.2-2.6 2.6-2.6h25.8c1.4 0 2.6 1.1 2.6 2.6v14.5c0 1.5-1.2 2.6-2.6 2.6h-25.8c-1.4 0-2.6-1.1-2.6-2.6z"/>
		<path id="Layer" class="s11" d="m212.1 399.1c0-1.5 1.2-2.6 2.7-2.6h14.5c1.4 0 2.6 1.1 2.6 2.6v14.5c0 1.5-1.2 2.6-2.6 2.6h-14.5c-1.5 0-2.7-1.1-2.7-2.6z"/>
		<path id="Layer" class="s3" d="m245.3 416.8h-5.3l-9.5-132.3h7l7.8 132.3z"/>
		<path id="Layer" class="s8" d="m245.3 416.8h-5.3l-9.1-125.8-0.4-6.3h7l0.4 6.3 7.4 125.8z"/>
		<path id="Layer" class="s12" d="m237.9 290.7h-7l-0.4-6h7l0.4 6z"/>
		<path id="Layer" class="s3" d="m370.5 416.8h-5.3l-0.9-132.3h7.1l-0.9 132.3z"/>
		<path id="Layer" class="s9" d="m371.4 284.7l-0.2 21.3-0.7 110.8h-5.3l-0.7-110.8-0.2-21.3h7.1z"/>
		<path id="Layer" class="s12" d="m371.4 284.7l-0.2 21.6h-6.7l-0.2-21.6h7.1z"/>
		<path id="Layer" class="s3" d="m426.7 416.8h-5.3l-9.5-132.3h7l7.8 132.3z"/>
		<path id="Layer" class="s9" d="m426.7 416.8h-5.3l-9.1-125.8-0.4-6.3h7l0.4 6.3 7.4 125.8z"/>
		<path id="Layer" class="s12" d="m419.3 290.7h-7l-0.4-6h7l0.4 6z"/>
		<path id="Layer" class="s3" d="m184.8 416.8h-5.3l7.7-132.3h7.1l-9.6 132.3z"/>
		<path id="Layer" class="s9" d="m194.3 284.7l-0.5 6.3-9.1 125.8h-5.2l7.3-125.8 0.4-6.3h7.1z"/>
		<path id="Layer" class="s12" d="m187.2 284.7h7.1l-0.5 6h-6.9l0.3-6z"/>
		<path id="Layer" class="s0" d="m181.7 281.1h242.8v4.5q0 0.4-0.2 0.8-0.2 0.4-0.5 0.7-0.3 0.3-0.7 0.5-0.4 0.2-0.8 0.2h-238.5q-0.4 0-0.8-0.2-0.4-0.2-0.7-0.5-0.3-0.3-0.5-0.7-0.1-0.4-0.1-0.8v-4.5c-181.7-281.1-181.7-281.1-181.7-281.1z"/>
		<path id="Layer" class="s6" d="m181.7 281.1h242.8v4.5q0 0.4-0.2 0.8-0.2 0.4-0.5 0.7-0.3 0.3-0.7 0.5-0.4 0.2-0.8 0.2h-238.5q-0.4 0-0.8-0.2-0.4-0.2-0.7-0.5-0.3-0.3-0.5-0.7-0.1-0.4-0.1-0.8v-4.5c-181.7-281.1-181.7-281.1-181.7-281.1z"/>
		<path id="Layer" class="s12" d="m181.7 281.1h242.8v3.4h-242.8z"/>
		<path id="Layer" class="s0" d="m427.7 282h-249.3q-0.4 0-0.7-0.1-0.4-0.2-0.6-0.5-0.3-0.2-0.4-0.6-0.2-0.3-0.2-0.7 0-0.3 0.2-0.7 0.1-0.3 0.4-0.6 0.2-0.3 0.6-0.4 0.3-0.1 0.7-0.1h249.3q0.4 0 0.8 0.1 0.3 0.1 0.6 0.4 0.2 0.3 0.4 0.6 0.1 0.4 0.1 0.7 0 0.4-0.1 0.7-0.2 0.4-0.4 0.7-0.3 0.2-0.6 0.4-0.4 0.1-0.8 0.1z"/>
		<path id="Layer" class="s6" d="m427.7 282h-249.3q-0.4 0-0.7-0.1-0.4-0.2-0.6-0.5-0.3-0.2-0.4-0.6-0.2-0.3-0.2-0.7 0-0.3 0.2-0.7 0.1-0.3 0.4-0.6 0.2-0.3 0.6-0.4 0.3-0.1 0.7-0.1h249.3q0.4 0 0.8 0.1 0.3 0.1 0.6 0.4 0.2 0.3 0.4 0.6 0.1 0.4 0.1 0.7 0 0.4-0.1 0.7-0.2 0.4-0.4 0.7-0.3 0.2-0.6 0.4-0.4 0.1-0.8 0.1z"/>
	</g>
</svg>